<svg width="378" height="73" viewBox="0 0 378 73" fill="none" xmlns="http://www.w3.org/2000/svg">
<path d="M7.125 41.25C7.125 39.3644 7.125 38.4216 7.71079 37.8358C8.29657 37.25 9.23938 37.25 11.125 37.25H45.875C47.7606 37.25 48.7034 37.25 49.2892 37.8358C49.875 38.4216 49.875 39.3644 49.875 41.25V46.75H48H9H7.125V41.25Z" fill="black"/>
<path d="M16.625 52.5C16.625 52.0286 16.625 51.7929 16.7714 51.6464C16.9179 51.5 17.1536 51.5 17.625 51.5H25.125C25.5964 51.5 25.8321 51.5 25.9786 51.6464C26.125 51.7929 26.125 52.0286 26.125 52.5V55.25C26.125 55.7214 26.125 55.9571 25.9786 56.1036C25.8321 56.25 25.5964 56.25 25.125 56.25H17.625C17.1536 56.25 16.9179 56.25 16.7714 56.1036C16.625 55.9571 16.625 55.7214 16.625 55.25V52.5Z" fill="black"/>
<path d="M16.625 62C16.625 61.5286 16.625 61.2929 16.7714 61.1464C16.9179 61 17.1536 61 17.625 61H25.125C25.5964 61 25.8321 61 25.9786 61.1464C26.125 61.2929 26.125 61.5286 26.125 62V64.75C26.125 65.2214 26.125 65.4571 25.9786 65.6036C25.8321 65.75 25.5964 65.75 25.125 65.75H17.625C17.1536 65.75 16.9179 65.75 16.7714 65.6036C16.625 65.4571 16.625 65.2214 16.625 64.75V62Z" fill="black"/>
<path d="M30.875 52.5C30.875 52.0286 30.875 51.7929 31.0214 51.6464C31.1679 51.5 31.4036 51.5 31.875 51.5H39.375C39.8464 51.5 40.0821 51.5 40.2286 51.6464C40.375 51.7929 40.375 52.0286 40.375 52.5V55.25C40.375 55.7214 40.375 55.9571 40.2286 56.1036C40.0821 56.25 39.8464 56.25 39.375 56.25H31.875C31.4036 56.25 31.1679 56.25 31.0214 56.1036C30.875 55.9571 30.875 55.7214 30.875 55.25V52.5Z" fill="black"/>
<path d="M30.875 62C30.875 61.5286 30.875 61.2929 31.0214 61.1464C31.1679 61 31.4036 61 31.875 61H39.375C39.8464 61 40.0821 61 40.2286 61.1464C40.375 61.2929 40.375 61.5286 40.375 62V64.75C40.375 65.2214 40.375 65.4571 40.2286 65.6036C40.0821 65.75 39.8464 65.75 39.375 65.75H31.875C31.4036 65.75 31.1679 65.75 31.0214 65.6036C30.875 65.4571 30.875 65.2214 30.875 64.75V62Z" fill="black"/>
<path d="M31.344 14H24.656C20.4277 14 17 17.4277 17 21.656V28.344C17 32.5723 20.4277 36 24.656 36H31.344C35.5723 36 39 32.5723 39 28.344V21.656C39 17.4277 35.5723 14 31.344 14Z" fill="#F8DE40"/>
<path d="M24.907 22.844C24.9061 22.8823 24.8931 22.9193 24.8698 22.9498C24.8466 22.9803 24.8144 23.0027 24.7777 23.0138C24.741 23.0249 24.7018 23.0241 24.6655 23.0116C24.6293 22.999 24.598 22.9754 24.576 22.944C24.4263 22.7187 24.2328 22.5259 24.007 22.377C23.7232 22.1886 23.3901 22.0881 23.0495 22.0881C22.7089 22.0881 22.3758 22.1886 22.092 22.377C21.8653 22.5263 21.6711 22.7198 21.521 22.946C21.499 22.9774 21.4677 23.001 21.4315 23.0136C21.3952 23.0261 21.356 23.0269 21.3193 23.0158C21.2826 23.0047 21.2504 22.9823 21.2272 22.9518C21.2039 22.9214 21.1909 22.8843 21.19 22.846C21.1859 22.4756 21.3079 22.1149 21.536 21.823C21.7164 21.5943 21.9462 21.4095 22.2083 21.2825C22.4703 21.1554 22.7578 21.0894 23.049 21.0894C23.3402 21.0894 23.6277 21.1554 23.8897 21.2825C24.1518 21.4095 24.3816 21.5943 24.562 21.823C24.7887 22.1148 24.9103 22.4745 24.907 22.844ZM34.81 22.844C34.8091 22.8823 34.7961 22.9193 34.7728 22.9498C34.7496 22.9803 34.7174 23.0027 34.6807 23.0138C34.644 23.0249 34.6048 23.0241 34.5685 23.0116C34.5323 22.999 34.501 22.9754 34.479 22.944C34.3294 22.719 34.1362 22.5262 33.911 22.377C33.6271 22.1885 33.2938 22.0879 32.953 22.0879C32.6122 22.0879 32.2789 22.1885 31.995 22.377C31.7683 22.5263 31.5741 22.7198 31.424 22.946C31.402 22.9774 31.3707 23.001 31.3345 23.0136C31.2982 23.0261 31.259 23.0269 31.2223 23.0158C31.1856 23.0047 31.1534 22.9823 31.1302 22.9518C31.1069 22.9214 31.0939 22.8843 31.093 22.846C31.0889 22.4756 31.2109 22.1149 31.439 21.823C31.6194 21.5943 31.8492 21.4095 32.1113 21.2825C32.3733 21.1554 32.6608 21.0894 32.952 21.0894C33.2432 21.0894 33.5307 21.1554 33.7927 21.2825C34.0548 21.4095 34.2846 21.5943 34.465 21.823C34.6917 22.1148 34.8133 22.4745 34.81 22.844Z" fill="black"/>
<path d="M39 26.938C37.6404 28.9744 35.7932 30.6386 33.6265 31.7793C31.4598 32.9199 29.0424 33.5007 26.594 33.469C21.052 33.469 20.031 32.469 17.452 30.94C17.9867 32.4219 18.9653 33.7028 20.2545 34.6083C21.5436 35.5138 23.0806 35.9997 24.656 36H31.344C33.3745 36 35.3218 35.1934 36.7576 33.7576C38.1934 32.3218 39 30.3745 39 28.344V26.938Z" fill="#E7C930"/>
<path d="M32.666 25.583H23.334C23.2648 25.5828 23.1964 25.5971 23.1331 25.6251C23.0698 25.653 23.0131 25.694 22.9667 25.7453C22.9203 25.7966 22.8852 25.8571 22.8637 25.9229C22.8422 25.9886 22.8348 26.0582 22.842 26.127C22.965 27.302 23.717 29.969 28 29.969C32.283 29.969 33.035 27.302 33.158 26.127C33.1652 26.0582 33.1578 25.9886 33.1363 25.9229C33.1148 25.8571 33.0797 25.7966 33.0333 25.7453C32.9869 25.694 32.9302 25.653 32.8669 25.6251C32.8036 25.5971 32.7352 25.5828 32.666 25.583Z" fill="black"/>
<path d="M28 29.969C29.0196 30.0026 30.033 29.7971 30.959 29.369C30.6814 28.939 30.2481 28.6333 29.75 28.516C28.406 28.216 28 28.625 28 28.625C28 28.625 27.594 28.219 26.25 28.516C25.7519 28.6333 25.3186 28.939 25.041 29.369C25.967 29.7971 26.9804 30.0026 28 29.969Z" fill="#F06880"/>
<path d="M21.117 28.682C22.0564 27.4312 22.521 25.8875 22.428 24.326C20.8663 24.2325 19.3222 24.6967 18.071 25.636C16.301 27.159 17.151 28.647 17.629 29.125C18.107 29.603 19.594 30.453 21.117 28.682ZM34.883 28.682C33.9436 27.4312 33.479 25.8875 33.572 24.326C35.1337 24.2325 36.6778 24.6967 37.929 25.636C39.699 27.159 38.849 28.647 38.371 29.125C37.893 29.603 36.406 30.453 34.883 28.682Z" fill="#26A9E0"/>
<path d="M367.5 49.5312V54.2188H342.5V49.5312H367.5Z" fill="black"/>
<path d="M365.156 43.2812V49.5312H344.844V43.2812H365.156Z" fill="black"/>
<path d="M360.469 16.9922L357.734 19.7891L358.383 23.75L355 21.8828L351.617 23.75L352.266 19.7891L349.531 16.9922L353.312 16.4141L355 12.8125L356.688 16.4141L360.469 16.9922Z" fill="white"/>
<path d="M343.281 5.78125H366.719V8.90625H343.281V5.78125Z" fill="#E7C930"/>
<path d="M343.281 22.1875V12.8125H337.812V18.2812C337.812 19.3173 338.224 20.3108 338.957 21.0434C339.689 21.776 340.683 22.1875 341.719 22.1875H343.281ZM368.281 22.1875C369.317 22.1875 370.311 21.776 371.043 21.0434C371.776 20.3108 372.188 19.3173 372.188 18.2812V12.8125H366.719V22.1875H368.281ZM374.531 10.4688V18.2812C374.531 19.9389 373.873 21.5286 372.701 22.7007C371.529 23.8728 369.939 24.5312 368.281 24.5312H366.484C366.052 26.647 365.043 28.6021 363.569 30.1807C362.095 31.7592 360.214 32.8998 358.133 33.4766C358.327 36.9557 359.399 40.3289 361.25 43.2812H348.75C350.601 40.3289 351.673 36.9557 351.867 33.4766C349.786 32.8998 347.905 31.7592 346.431 30.1807C344.957 28.6021 343.948 26.647 343.516 24.5312H341.719C340.061 24.5312 338.471 23.8728 337.299 22.7007C336.127 21.5286 335.469 19.9389 335.469 18.2812V10.4688H343.281V8.90625H366.719V10.4688H374.531ZM357.734 19.7891L360.469 16.9922L356.688 16.4141L355 12.8125L353.312 16.4141L349.531 16.9922L352.266 19.7891L351.617 23.75L355 21.8828L358.383 23.75L357.734 19.7891Z" fill="#E7C930"/>
<path d="M347.969 22.1875V8.90625H343.281V10.4688H335.469V18.2812C335.469 19.9389 336.127 21.5286 337.299 22.7007C338.471 23.8728 340.061 24.5312 341.719 24.5312H343.516C343.948 26.647 344.957 28.6021 346.431 30.1807C347.905 31.7592 349.786 32.8998 351.867 33.4766C351.673 36.9557 350.601 40.3289 348.75 43.2812H361.25C359.454 40.4215 358.39 37.1632 358.152 33.7945C355.336 33.4236 352.751 32.0418 350.877 29.9066C349.004 27.7713 347.97 25.0281 347.969 22.1875ZM343.281 22.1875H341.719C340.683 22.1875 339.689 21.776 338.957 21.0434C338.224 20.3108 337.812 19.3173 337.812 18.2812V12.8125H343.281V22.1875Z" fill="#F8DE40"/>
<path d="M343.281 5.78125V8.90625H366.719V7.34375H349.531C349.117 7.34375 348.719 7.17913 348.426 6.8861C348.133 6.59308 347.969 6.19565 347.969 5.78125H343.281Z" fill="black"/>
<path d="M344.844 43.2812V49.5312H365.156V47.1875H350.312C349.691 47.1875 349.095 46.9406 348.655 46.501C348.216 46.0615 347.969 45.4654 347.969 44.8438V43.2812H344.844Z" fill="black"/>
<path d="M342.5 49.5312V54.2188H367.5V52.6562H347.969C347.347 52.6562 346.751 52.4093 346.311 51.9698C345.872 51.5302 345.625 50.9341 345.625 50.3125V49.5312H342.5Z" fill="black"/>
<path d="M374.531 9.6875H367.5V5.78125C367.5 5.57405 367.418 5.37534 367.271 5.22882C367.125 5.08231 366.926 5 366.719 5H351.875V6.5625H365.938V10.4688C365.938 10.676 366.02 10.8747 366.166 11.0212C366.313 11.1677 366.512 11.25 366.719 11.25H373.75V18.2812C373.748 19.7311 373.172 21.1212 372.146 22.1464C371.121 23.1716 369.731 23.7483 368.281 23.75H366.484C366.304 23.75 366.13 23.8122 365.99 23.926C365.851 24.0399 365.755 24.1985 365.719 24.375C365.307 26.3459 364.363 28.1663 362.99 29.6384C361.616 31.1105 359.866 32.1781 357.928 32.725C357.757 32.7723 357.608 32.8762 357.504 33.0197C357.4 33.1633 357.348 33.3378 357.356 33.5148C357.535 36.6562 358.392 39.7215 359.868 42.5H357.344V44.0625H364.375V48.75H345.625V44.0625H355.781V42.5H350.132C351.608 39.7218 352.465 36.6567 352.644 33.5156C352.652 33.3386 352.6 33.164 352.496 33.0205C352.392 32.877 352.243 32.7731 352.072 32.7258C350.134 32.1788 348.383 31.1111 347.01 29.6388C345.636 28.1666 344.693 26.346 344.281 24.375C344.245 24.1985 344.149 24.0399 344.01 23.926C343.87 23.8122 343.696 23.75 343.516 23.75H341.719C340.269 23.7483 338.879 23.1716 337.854 22.1464C336.828 21.1212 336.252 19.7311 336.25 18.2812V11.25H343.281C343.488 11.25 343.687 11.1677 343.834 11.0212C343.98 10.8747 344.062 10.676 344.062 10.4688V9.6875H361.25V8.125H344.062V6.5625H347.188V5H343.281C343.074 5 342.875 5.08231 342.729 5.22882C342.582 5.37534 342.5 5.57405 342.5 5.78125V9.6875H335.469C335.262 9.6875 335.063 9.76981 334.916 9.91632C334.77 10.0628 334.688 10.2615 334.688 10.4688V18.2812C334.69 20.1454 335.431 21.9325 336.749 23.2506C338.068 24.5687 339.855 25.3102 341.719 25.3125H342.891C343.422 27.3275 344.445 29.1796 345.867 30.7031C347.288 32.2267 349.065 33.3744 351.039 34.0438C350.785 37.0324 349.854 39.9241 348.317 42.5H344.844C344.637 42.5 344.438 42.5823 344.291 42.7288C344.145 42.8753 344.062 43.074 344.062 43.2812V48.75H342.5C342.293 48.75 342.094 48.8323 341.948 48.9788C341.801 49.1253 341.719 49.324 341.719 49.5312V54.2188C341.719 54.426 341.801 54.6247 341.948 54.7712C342.094 54.9177 342.293 55 342.5 55H367.5C367.707 55 367.906 54.9177 368.052 54.7712C368.199 54.6247 368.281 54.426 368.281 54.2188V49.5312C368.281 49.324 368.199 49.1253 368.052 48.9788C367.906 48.8323 367.707 48.75 367.5 48.75H365.938V43.2812C365.938 43.074 365.855 42.8753 365.709 42.7288C365.562 42.5823 365.363 42.5 365.156 42.5H361.683C360.145 39.9243 359.213 37.0327 358.958 34.0438C360.932 33.3749 362.71 32.2273 364.132 30.7037C365.555 29.1801 366.577 27.3279 367.109 25.3125H368.281C370.145 25.3102 371.932 24.5687 373.251 23.2506C374.569 21.9325 375.31 20.1454 375.312 18.2812V10.4688C375.312 10.2615 375.23 10.0628 375.084 9.91632C374.937 9.76981 374.738 9.6875 374.531 9.6875ZM366.719 53.4375H343.281V50.3125H366.719V53.4375Z" fill="black"/>
<path d="M343.281 12.0312H337.812C337.605 12.0312 337.407 12.1136 337.26 12.2601C337.114 12.4066 337.031 12.6053 337.031 12.8125V18.2812C337.032 19.5241 337.527 20.7156 338.406 21.5944C339.284 22.4733 340.476 22.9675 341.719 22.9688H343.281C343.488 22.9688 343.687 22.8864 343.834 22.7399C343.98 22.5934 344.062 22.3947 344.062 22.1875V12.8125C344.062 12.6053 343.98 12.4066 343.834 12.2601C343.687 12.1136 343.488 12.0312 343.281 12.0312ZM342.5 21.4062H341.719C340.89 21.4062 340.095 21.077 339.509 20.491C338.923 19.9049 338.594 19.1101 338.594 18.2812V13.5938H342.5V21.4062ZM366.719 22.9688H368.281C369.524 22.9675 370.716 22.4733 371.594 21.5944C372.473 20.7156 372.968 19.5241 372.969 18.2812V12.8125C372.969 12.6053 372.886 12.4066 372.74 12.2601C372.593 12.1136 372.395 12.0312 372.188 12.0312H366.719C366.512 12.0312 366.313 12.1136 366.166 12.2601C366.02 12.4066 365.938 12.6053 365.938 12.8125V22.1875C365.938 22.3947 366.02 22.5934 366.166 22.7399C366.313 22.8864 366.512 22.9688 366.719 22.9688ZM367.5 13.5938H371.406V18.2812C371.406 19.1101 371.077 19.9049 370.491 20.491C369.905 21.077 369.11 21.4062 368.281 21.4062H367.5V13.5938ZM348.75 5H350.312V6.5625H348.75V5ZM362.812 8.125H364.375V9.6875H362.812V8.125ZM361.209 16.7422C361.164 16.6057 361.081 16.4845 360.971 16.392C360.86 16.2995 360.727 16.2393 360.584 16.218L357.22 15.7031L355.707 12.4805C355.644 12.3463 355.544 12.2328 355.419 12.1533C355.294 12.0738 355.148 12.0316 355 12.0316C354.852 12.0316 354.706 12.0738 354.581 12.1533C354.456 12.2328 354.356 12.3463 354.293 12.4805L352.78 15.7031L349.413 16.2172C349.271 16.2388 349.138 16.2992 349.028 16.3917C348.918 16.4842 348.836 16.6052 348.79 16.7414C348.745 16.8776 348.737 17.0238 348.769 17.1638C348.801 17.3039 348.872 17.4323 348.972 17.5352L351.431 20.0547L350.849 23.6234C350.826 23.7682 350.843 23.9166 350.9 24.0518C350.957 24.187 351.051 24.3035 351.17 24.3879C351.29 24.4724 351.432 24.5213 351.578 24.5293C351.724 24.5372 351.87 24.5038 351.998 24.4328L355 22.7742L358.002 24.4336C358.13 24.5045 358.276 24.5379 358.422 24.5299C358.569 24.5219 358.71 24.4728 358.83 24.3883C358.949 24.3039 359.043 24.1874 359.1 24.0523C359.157 23.9172 359.174 23.7689 359.151 23.6242L358.569 20.0555L361.028 17.5359C361.128 17.4331 361.198 17.3046 361.23 17.1645C361.262 17.0245 361.255 16.8784 361.209 16.7422ZM357.175 19.2469C357.09 19.3345 357.026 19.4409 356.989 19.5576C356.952 19.6743 356.943 19.798 356.963 19.9188L357.354 22.2875L355.382 21.1977C355.266 21.1336 355.136 21.1001 355.004 21.1001C354.872 21.1001 354.742 21.1336 354.626 21.1977L352.654 22.2875L353.041 19.9188C353.06 19.798 353.052 19.6743 353.015 19.5576C352.978 19.4409 352.914 19.3345 352.829 19.2469L351.156 17.5328L353.432 17.1852C353.559 17.1657 353.679 17.1154 353.782 17.0385C353.884 16.9617 353.967 16.8607 354.021 16.7445L355 14.6516L355.983 16.7445C356.037 16.8607 356.119 16.9617 356.222 17.0385C356.325 17.1154 356.445 17.1657 356.572 17.1852L358.848 17.5328L357.175 19.2469ZM351.094 45.625H358.906V47.1875H351.094V45.625Z" fill="black"/>
<path d="M256.398 1.51949C255.625 2.16824 254.952 3.69031 254.952 4.83811C254.952 5.31219 254.853 5.68647 254.728 5.68647C254.429 5.68647 254.08 8.18168 253.856 11.7249C253.781 12.673 253.681 13.5214 253.607 13.6462C253.258 14.1951 252.784 40.4945 253.108 41.3679C253.183 41.5675 253.283 43.4389 253.308 45.5099C253.357 47.5809 253.457 49.4024 253.557 49.5521C253.632 49.7018 253.756 50.6001 253.831 51.5732C253.881 52.5214 254.03 53.5195 254.18 53.769C254.304 54.0185 254.479 54.5176 254.579 54.9168C254.653 55.2911 254.928 55.8151 255.177 56.0646C255.6 56.4888 256.248 56.5387 266.068 56.5387C272.996 56.5387 276.834 56.4638 277.507 56.2892C278.055 56.1145 278.653 56.0396 278.828 56.0646C279.351 56.1644 281.868 55.341 281.868 55.0915C281.868 54.9418 282.117 54.8419 282.441 54.8419C283.064 54.8419 285.357 53.4945 285.681 52.9456C285.781 52.746 286.03 52.5963 286.204 52.5963C286.628 52.5963 288.348 50.7249 288.348 50.2508C288.348 50.0761 288.597 49.7517 288.921 49.5272C289.22 49.3275 289.743 48.554 290.067 47.8304C290.416 47.0819 290.94 45.9091 291.264 45.2105C291.613 44.4869 291.887 43.5387 291.887 43.0895C291.887 42.6155 291.986 42.1164 292.086 41.9917C292.186 41.8419 292.335 41.4677 292.435 41.1183C292.659 40.245 292.908 31.1625 292.709 30.6634C292.609 30.4389 292.51 29.4907 292.46 28.5675C292.41 27.6442 292.261 26.721 292.086 26.5214C291.912 26.3218 291.837 25.9974 291.912 25.7978C292.086 25.3487 291.488 22.7786 291.089 22.3045C290.94 22.0799 290.865 21.8304 290.94 21.7057C291.114 21.4062 290.391 19.1606 289.943 18.6366C289.743 18.437 289.594 17.9878 289.594 17.6884C289.594 17.0147 288.647 15.1183 288.198 14.8439C287.999 14.7441 287.849 14.4446 287.849 14.1951C287.849 13.6711 286.454 11.4254 286.13 11.4254C286.005 11.4254 285.806 11.1759 285.706 10.8515C285.457 10.078 283.862 8.18168 283.463 8.18168C283.264 8.18168 282.99 7.9072 282.89 7.58283C282.641 6.98398 280.871 5.43695 280.423 5.43695C280.273 5.43695 280.049 5.28724 279.949 5.08763C279.65 4.58859 277.357 3.19127 276.834 3.19127C276.585 3.19127 276.385 3.09147 276.385 2.96671C276.385 2.66728 273.943 1.69415 273.17 1.69415C272.797 1.69415 272.348 1.54444 272.198 1.36978C271.949 1.14521 270.005 1.0454 264.473 1.02045C257.171 0.970544 257.071 0.970544 256.398 1.51949ZM271.476 9.90337C272.124 10.2277 272.722 10.5771 272.797 10.7018C272.871 10.8266 273.145 10.9264 273.42 10.9264C273.669 10.9264 273.893 11.0262 273.893 11.151C273.893 11.2757 274.516 11.9993 275.264 12.7728C276.011 13.5214 276.634 14.1951 276.634 14.27C276.634 14.5195 278.354 17.1394 278.628 17.2892C278.778 17.389 278.828 17.5387 278.753 17.6634C278.678 17.7633 278.977 18.6366 279.426 19.5847C279.849 20.508 280.173 21.3813 280.148 21.4811C280.124 21.6059 280.348 22.4792 280.647 23.4523C280.921 24.4254 281.22 25.9475 281.27 26.8208C281.32 27.7191 281.444 28.5425 281.519 28.6922C281.719 28.9917 281.719 33.0838 281.519 35.5041C281.444 36.4523 281.17 37.9245 280.871 38.7229C280.597 39.5464 280.373 40.4197 280.373 40.6692C280.373 40.9187 280.173 41.3679 279.899 41.6423C279.65 41.9168 279.152 42.7402 278.753 43.4888C278.379 44.2373 277.98 44.8611 277.856 44.8611C277.656 44.8611 275.388 46.483 275.139 46.8323C274.865 47.1817 270.803 47.8554 270.554 47.6059C270.429 47.4811 270.155 47.3563 269.98 47.3563C269.781 47.3563 269.233 47.1817 268.709 46.9322C268.211 46.7076 267.688 46.508 267.563 46.508C267.438 46.483 267.264 46.3084 267.189 46.1087C267.114 45.9091 266.591 45.0608 266.043 44.2373C265.494 43.4139 265.096 42.6404 265.121 42.5406C265.146 42.4408 264.996 41.6922 264.772 40.9187C264.547 40.1452 264.273 38.5982 264.124 37.5003C263.899 35.5041 263.775 18.1126 263.999 17.7383C264.049 17.6385 264.248 16.7402 264.423 15.792C264.572 14.8189 265.071 13.3218 265.494 12.4235C265.918 11.5252 266.267 10.7268 266.267 10.602C266.292 10.3775 267.563 9.6788 268.385 9.45423C269.382 9.17976 270.23 9.30452 271.476 9.90337Z" fill="black"/>
<path d="M213.426 1.54894C213.251 1.84837 212.977 2.19769 212.802 2.2975C212.404 2.52207 211.656 4.91746 211.855 5.26679C211.93 5.39155 211.88 5.61612 211.756 5.79078C211.432 6.16506 210.908 8.93474 211.108 9.25911C211.183 9.38387 211.133 9.78311 211.008 10.1574C210.709 10.9059 210.46 14.2745 210.335 18.9904C210.285 20.737 210.186 22.2591 210.136 22.3589C209.887 22.7831 210.011 41.7716 210.26 42.071C210.435 42.2956 210.435 42.4952 210.236 42.7198C210.086 42.9194 210.011 43.119 210.061 43.1689C210.111 43.2188 210.236 44.7658 210.335 46.6123C210.41 48.4587 210.56 50.0806 210.634 50.2054C210.709 50.3551 210.809 51.1036 210.834 51.9021C210.884 52.7505 211.058 53.6238 211.307 53.9731C211.531 54.3225 211.631 54.7466 211.581 54.9463C211.507 55.1209 211.706 55.5701 212.03 55.9194C212.603 56.5432 212.628 56.5432 217.064 56.5681C219.531 56.5681 221.675 56.4683 221.824 56.3436C222.248 55.9942 221.899 52.0768 221.376 51.453C221.226 51.2783 221.176 50.9789 221.251 50.8042C221.376 50.4798 221.027 48.1094 220.753 47.3858C220.678 47.1862 220.578 46.238 220.528 45.2898C220.478 44.3167 220.329 43.4933 220.229 43.4184C220.13 43.3186 220.03 42.6948 220.03 42.0211C220.03 41.3225 219.955 39.9251 219.855 38.9021C219.556 35.4338 219.382 31.3167 219.382 26.6756C219.357 22.7831 219.457 21.3359 219.83 19.0653C219.855 18.9155 219.88 18.7409 219.905 18.6161C219.955 18.2917 221.351 19.1401 221.874 19.8138C222.148 20.1631 222.497 20.4376 222.647 20.4376C222.796 20.4376 222.946 20.5374 222.946 20.6871C223.02 21.1862 223.095 21.3359 223.868 22.5585C224.316 23.2322 224.84 23.881 225.039 24.0058C225.263 24.1056 225.363 24.3052 225.288 24.4299C225.139 24.6545 226.559 27.1747 227.008 27.4741C227.157 27.5739 227.282 27.7985 227.307 27.9731C227.307 28.2476 228.055 29.7447 228.877 31.167C229.002 31.3666 229.4 32.2399 229.799 33.0883C230.173 33.9616 230.572 34.6603 230.696 34.6603C230.796 34.6603 230.896 34.8848 230.896 35.1344C230.896 35.7332 231.818 37.904 232.291 38.428C232.491 38.6526 232.64 38.9271 232.59 39.0518C232.516 39.3762 233.139 41.1727 233.562 41.8714C233.762 42.1958 233.961 42.6948 233.986 42.9942C234.086 43.9175 234.908 46.1382 235.157 46.1382C235.282 46.1382 235.357 46.3877 235.332 46.7121C235.282 47.3109 235.83 49.5816 236.129 50.0058C236.229 50.1305 236.379 50.8791 236.478 51.6276C236.578 52.3762 236.802 53.3244 236.977 53.7486C237.151 54.1478 237.4 54.8215 237.525 55.2457C237.899 56.4683 238.522 56.618 243.481 56.5681C245.949 56.5681 248.142 56.4434 248.391 56.3436C248.864 56.094 249.712 54.023 249.487 53.6488C249.388 53.524 249.438 53.3493 249.562 53.2745C249.936 53.0499 250.26 50.5048 250.435 46.3877C250.484 45.4894 250.559 44.0921 250.584 43.2438C250.634 42.4203 250.584 41.5969 250.484 41.4223C250.385 41.2726 250.41 40.9731 250.559 40.7985C250.808 40.499 250.758 24.8541 250.509 19.0653C250.459 17.8177 250.385 15.9962 250.385 14.9981C250.36 14 250.285 13.0518 250.185 12.9021C250.086 12.7274 249.986 11.9789 249.961 11.2303C249.911 9.18426 249.363 5.4165 249.064 5.06718C248.914 4.89251 248.765 4.34357 248.715 3.86948C248.69 3.39539 248.416 2.59693 248.117 2.12284C247.469 1.09981 246.921 0.999997 242.235 0.999997C239.444 0.999997 238.921 1.07485 238.422 1.47409C237.899 1.89827 237.899 1.99808 238.148 3.27063C238.298 3.99424 238.522 4.6929 238.622 4.84261C238.721 4.96737 238.871 5.79078 238.97 6.6641C239.045 7.53742 239.245 8.46065 239.369 8.73512C239.519 9.00959 239.693 9.90787 239.743 10.7313C239.818 11.5547 239.967 12.428 240.092 12.6526C240.192 12.8772 240.366 13.9002 240.466 14.9232C240.541 15.9213 240.69 16.8695 240.79 17.0192C240.865 17.1439 240.964 17.9424 241.014 18.7908C241.039 19.6142 241.139 21.3858 241.238 22.6833C241.488 26.3263 241.463 29.9194 241.164 30.2188C240.964 30.4184 240.74 30.2188 240.366 29.5701C240.067 29.071 239.718 28.6718 239.594 28.6718C239.469 28.6718 239.369 28.4722 239.369 28.1977C239.369 27.6238 238.148 25.3781 237.699 25.1036C237.525 25.0038 237.375 24.7294 237.375 24.5048C237.375 23.9808 235.905 21.4357 235.606 21.4357C235.481 21.4357 235.382 21.261 235.382 21.0365C235.382 20.5125 233.911 17.9424 233.612 17.9424C233.488 17.9424 233.388 17.7678 233.388 17.5432C233.388 17.0192 231.967 14.6487 231.494 14.3743C231.295 14.2745 231.145 14.0249 231.145 13.8253C231.145 13.3512 229.749 11.1555 229.276 10.881C229.076 10.7812 228.902 10.5067 228.902 10.3071C228.902 9.78311 227.531 7.8119 227.033 7.63723C226.834 7.53742 226.659 7.26295 226.659 7.01343C226.659 6.76391 226.111 5.96545 225.413 5.24184C224.74 4.51823 224.167 3.84453 224.167 3.71977C224.167 3.37044 221.824 1.47409 221.376 1.47409C221.151 1.47409 220.902 1.37428 220.802 1.24952C220.728 1.09981 219.108 0.999997 217.189 0.999997C213.849 0.999997 213.675 1.02495 213.426 1.54894Z" fill="black"/>
<path d="M177.176 1.72361C176.877 2.12284 176.528 3.04607 176.379 3.76968C176.229 4.49328 176.005 5.46641 175.88 5.89059C175.731 6.33973 175.531 7.46257 175.407 8.3858C175.282 9.33397 175.058 10.6814 174.908 11.4299C174.759 12.1536 174.684 12.9271 174.784 13.1267C174.858 13.3512 174.809 13.6507 174.684 13.8004C174.559 13.9501 174.31 15.1478 174.161 16.4453C174.011 17.7428 173.762 19.7639 173.612 20.9367C173.488 22.1094 173.338 23.6315 173.288 24.3551C173.239 25.0537 173.139 25.8772 173.039 26.1766C172.939 26.476 172.815 27.524 172.765 28.5221C172.69 29.4952 172.541 31.4165 172.391 32.7889C172.267 34.1612 172.092 38.8772 172.042 43.2687C171.893 52.476 172.117 55.3455 173.089 56.119C173.612 56.5432 174.684 56.5681 190.435 56.5681C199.681 56.5681 207.357 56.4933 207.506 56.3935C208.079 56.0441 207.905 54.2975 207.157 52.7505C206.758 51.9271 206.459 51.1785 206.509 51.0787C206.584 50.8042 205.363 48.1843 205.089 48.0096C204.939 47.9347 204.815 47.6353 204.815 47.3608C204.815 46.7121 203.643 44.3916 203.319 44.3916C203.17 44.3916 202.945 44.0921 202.821 43.7428C202.621 43.2438 202.472 43.144 201.998 43.2687C201.201 43.5182 199.83 44.3916 199.83 44.666C199.83 44.7908 199.656 44.8906 199.456 44.8906C198.958 44.8906 196.192 46.2879 195.967 46.6372C195.892 46.7869 195.718 46.8369 195.618 46.7869C195.544 46.7121 194.671 46.9117 193.724 47.1862C192.653 47.4856 191.407 47.6603 190.484 47.6104C189.662 47.5854 188.715 47.5605 188.366 47.5854C188.017 47.5854 187.693 47.5106 187.618 47.4357C187.544 47.3359 186.796 46.9117 185.924 46.5125C184.528 45.8388 184.304 45.6142 183.606 44.2668C183.157 43.4434 182.734 42.7198 182.659 42.6449C182.559 42.5701 182.36 41.5221 182.21 40.3244C181.986 38.453 182.011 37.904 182.41 36.4818C182.659 35.5585 182.808 34.7351 182.734 34.6353C182.684 34.5355 183.257 33.8119 184.005 33.0134C184.752 32.19 185.375 31.4664 185.375 31.3417C185.375 31.2418 185.525 31.167 185.699 31.167C185.849 31.167 186.771 30.8426 187.743 30.4683C189.188 29.8695 189.637 29.7946 190.435 29.9693C190.958 30.094 191.805 30.2188 192.304 30.2687C192.802 30.3186 193.65 30.5182 194.148 30.7678C195.469 31.3417 196.117 31.3666 196.366 30.8426C196.491 30.618 196.715 30.2188 196.84 29.9693C197.413 28.9962 198.135 27.2745 198.185 26.7505C198.21 26.4511 198.36 26.0518 198.509 25.8772C198.958 25.3532 199.83 22.8829 199.681 22.6334C199.606 22.5086 199.73 22.1843 199.955 21.9347C200.179 21.6852 200.428 21.0365 200.503 20.4875C200.603 19.6891 200.553 19.4395 200.179 19.2399C199.905 19.0902 199.656 18.9904 199.581 19.0154C199.506 19.0154 199.033 18.8656 198.484 18.691C197.911 18.5163 197.139 18.4415 196.491 18.5662C195.942 18.6411 195.02 18.7658 194.497 18.8407C193.126 18.9904 191.656 19.4146 191.481 19.6891C191.407 19.8388 191.083 19.9386 190.783 19.9386C190.111 19.9386 188.117 20.6622 187.593 21.1113C187.369 21.3109 187.095 21.4357 186.97 21.3858C186.846 21.3608 186.322 21.4108 185.824 21.5106C184.653 21.7601 183.581 21.261 183.481 20.4127C183.432 20.0883 183.307 19.19 183.182 18.4415C183.033 17.6929 183.033 16.9194 183.157 16.6948C183.257 16.4952 183.556 15.6468 183.78 14.8234C184.129 13.5758 184.478 13.0768 185.724 11.8292C186.547 11.0058 187.344 10.3321 187.494 10.3321C187.618 10.3071 188.416 10.1075 189.238 9.83302C190.659 9.38388 195.344 9.1094 195.344 9.48368C195.344 9.60844 196.067 9.83301 198.285 10.382C198.609 10.4568 199.132 10.7562 199.456 11.0557C199.78 11.3551 200.428 11.8292 200.902 12.0787L201.749 12.5278L202.596 11.6795C203.07 11.2054 203.643 10.3321 203.917 9.70826C204.167 9.08446 204.466 8.41075 204.59 8.21113C205.388 6.83877 206.26 5.01728 206.16 4.89252C206.086 4.81766 206.235 4.44338 206.534 4.04415C207.232 3.04607 207.406 2.1977 206.958 1.59885C206.609 1.09981 206.285 1.09981 192.154 1.0499L177.724 1L177.176 1.72361Z" fill="black"/>
<path d="M142.284 1.52399C141.836 2.07294 141.038 4.66795 141.263 4.89251C141.312 4.94242 141.213 5.39156 141.013 5.8906C140.789 6.36468 140.59 7.33781 140.515 8.06142C140.465 8.76008 140.241 10.0576 140.041 10.9559C139.842 11.8541 139.742 12.7774 139.817 13.0269C139.892 13.2764 139.842 13.6257 139.668 13.8004C139.518 14 139.369 14.9232 139.319 15.8964C139.269 16.8445 139.144 17.7678 139.045 17.9175C138.945 18.0921 138.845 18.9904 138.795 19.9386C138.77 20.8618 138.646 21.7601 138.546 21.9098C138.471 22.0595 138.347 23.0077 138.297 24.0058C138.272 25.0038 138.172 25.977 138.073 26.1766C137.898 26.6257 137.599 30.4683 137.574 32.5892C137.574 33.4626 137.475 34.1612 137.35 34.1612C137.225 34.1612 137.151 35.0345 137.2 36.0825C137.225 37.1555 137.175 38.2035 137.076 38.4031C137.001 38.6027 136.976 40.2994 137.026 42.1459C137.101 43.9923 137.2 47.4107 137.25 49.7562C137.3 52.0768 137.375 54.2226 137.4 54.4971C137.499 55.4453 137.998 56.094 138.77 56.3436C139.244 56.4933 145.3 56.5681 154.421 56.5432C167.281 56.4933 169.35 56.4434 169.674 56.119C169.998 55.7946 169.998 55.4453 169.798 53.8733C169.649 52.8503 169.375 51.6775 169.175 51.2783C169.001 50.8791 168.901 50.4798 168.951 50.3551C169.125 50.1056 168.602 47.9597 168.228 47.261C168.104 46.9866 167.954 46.3877 167.904 45.9136C167.829 44.7409 166.409 41.8964 165.91 41.8964C165.362 41.8964 163.892 42.8445 163.593 43.4184C163.443 43.6679 163.194 43.8925 163.069 43.8925C162.795 43.8925 161.001 45.19 160.477 45.739C160.228 46.0134 158.16 46.8618 157.188 47.0614C156.864 47.1363 156.615 47.261 156.615 47.3608C156.615 47.5854 152.054 47.3858 151.879 47.1612C151.805 47.0864 151.107 46.5624 150.334 46.0384C149.537 45.4894 148.889 44.9405 148.889 44.7908C148.889 44.4664 147.842 41.8215 147.643 41.6468C147.543 41.572 147.468 40.7985 147.443 39.9251C147.393 39.0518 147.294 38.1535 147.169 37.929C147.045 37.7044 147.02 36.6564 147.119 35.5835C147.219 34.5106 147.194 33.5624 147.094 33.5125C146.97 33.4376 146.995 33.1881 147.144 32.9386C147.269 32.6891 147.393 31.7159 147.418 30.7678C147.418 29.8196 147.543 28.6468 147.668 28.1228C147.792 27.6238 147.942 26.6756 147.967 26.0019C148.016 25.3532 148.116 24.6296 148.216 24.4299C148.515 23.6564 148.839 21.6353 148.714 21.1612C148.64 20.9117 148.689 20.6871 148.814 20.6871C149.088 20.6871 149.636 18.5163 149.636 17.4184C149.636 17.0192 149.736 16.6948 149.836 16.6948C150.035 16.6948 150.758 14.3992 150.758 13.7006C150.783 13.501 150.858 13.2015 150.932 13.0768C151.306 12.4779 152.129 10.0326 152.129 9.53359C152.129 9.23417 152.228 8.95969 152.328 8.90979C152.552 8.83493 153.624 6.28983 153.624 5.86564C153.624 5.71593 153.898 5.01728 154.247 4.34357C154.97 2.84645 154.995 2.27255 154.396 1.54894C153.973 1.02495 153.773 1.02495 148.34 1C142.932 1 142.733 1.02495 142.284 1.52399Z" fill="black"/>
<path d="M114.109 1.45849C113.536 1.73297 113.037 2.05734 112.962 2.23201C112.913 2.38172 112.713 2.53143 112.514 2.55638C111.916 2.65619 110.321 3.70417 109.797 4.37788C109.548 4.70226 109.249 4.97673 109.149 4.97673C108.9 4.97673 106.533 7.02279 106.533 7.24736C106.533 7.37212 105.934 8.07078 105.237 8.81934C104.514 9.5679 103.741 10.3664 103.542 10.6408C101.972 12.5871 101.498 13.2608 101.449 13.6101C101.399 13.8347 101.224 14.1591 101 14.3088C100.501 14.6831 99.3052 16.779 99.3052 17.2781C99.3052 17.5026 99.1557 17.7771 98.9563 17.8769C98.5077 18.1514 97.2616 20.6466 97.4361 20.946C97.5109 21.0708 97.4361 21.2454 97.2866 21.3203C96.9377 21.5449 96.0405 23.6159 95.9408 24.5142C95.8909 24.9134 95.7414 25.3625 95.6168 25.5122C95.2928 25.9115 94.5452 28.4566 94.6947 28.6811C94.7695 28.781 94.6448 29.2051 94.4205 29.6293C94.2212 30.0535 93.9969 31.0017 93.9221 31.7253C93.8473 32.4489 93.6729 33.3222 93.5483 33.6715C93.1745 34.6696 93 37.9134 93 43.4028C93.0249 49.5909 93.1745 51.8616 93.648 52.7848C93.8473 53.184 93.947 53.6332 93.8972 53.8078C93.7227 54.257 94.8442 56.3779 95.4174 56.6773C95.6916 56.827 96.0654 57.1015 96.2398 57.2762C96.4641 57.5007 97.9844 57.5756 102.047 57.5756C106.582 57.6005 107.604 57.5257 107.903 57.2262C108.103 57.0017 108.277 56.7272 108.277 56.5775C108.277 56.2531 107.031 54.0573 106.732 53.8577C106.607 53.7829 106.483 53.5084 106.433 53.2339C106.308 52.6351 105.262 50.3145 105.062 50.1399C104.962 50.065 104.738 49.2167 104.564 48.2685C104.364 47.2953 104.14 46.3971 104.015 46.2474C103.891 46.0977 103.916 45.2742 104.09 44.376C104.24 43.5026 104.364 42.6044 104.389 42.3798C104.414 42.1552 104.987 41.3817 105.685 40.6831C106.358 39.9595 106.956 39.2608 106.981 39.136C107.031 39.0113 107.205 38.9115 107.405 38.9115C107.579 38.9115 108.252 38.6869 108.925 38.3875C109.598 38.113 110.371 37.7886 110.645 37.6639C111.417 37.3395 114.408 36.8904 116.576 36.7906C117.648 36.7157 118.62 36.6159 118.744 36.541C118.844 36.4911 119.866 36.6159 121.012 36.8405C122.657 37.1648 123.23 37.4144 123.779 37.9633C124.95 39.161 125.174 40.0094 124.9 42.4048C124.775 43.5775 124.576 44.7502 124.476 45.0247C123.978 46.2224 123.529 47.8692 123.654 47.994C123.754 48.0689 123.629 48.3433 123.43 48.5679C122.981 49.1168 121.984 51.4623 121.984 51.9863C121.984 52.1859 121.884 52.3856 121.76 52.4355C121.436 52.5602 120.24 55.0305 120.24 55.5794C120.24 55.8289 120.14 56.1284 119.99 56.2781C119.841 56.4278 119.866 56.7023 120.115 57.0765C120.489 57.6005 120.613 57.6005 126.321 57.5756C129.511 57.5756 132.277 57.4758 132.451 57.376C133.149 56.9268 134.246 54.5065 134.296 53.2589C134.32 52.7099 134.42 52.1111 134.545 51.9364C135.143 50.9633 135.193 33.447 134.595 32.4489C134.495 32.2992 134.37 31.4508 134.32 30.5276C134.246 29.6293 134.121 28.756 133.996 28.5813C133.872 28.4316 133.697 27.6581 133.623 26.8846C133.548 26.1111 133.299 25.0631 133.049 24.5641C132.825 24.09 132.701 23.6159 132.775 23.541C132.95 23.3664 132.028 20.6715 131.704 20.3472C131.554 20.1975 131.454 19.8731 131.454 19.5737C131.454 18.9748 130.532 16.9038 130.183 16.6792C130.034 16.6044 129.884 16.2301 129.859 15.8808C129.76 15.1322 128.539 12.9614 128.215 12.9614C128.065 12.9614 127.965 12.7867 127.965 12.5372C127.965 11.9633 126.52 9.76752 125.922 9.44314C125.673 9.31838 125.523 9.09381 125.598 8.96905C125.797 8.64467 121.461 4.20322 120.564 3.82893C120.115 3.62932 119.741 3.35485 119.741 3.23009C119.741 2.83085 117.473 1.48345 116.85 1.48345C116.526 1.48345 116.202 1.35869 116.128 1.23393C115.903 0.859645 115.255 0.934501 114.109 1.45849ZM117 13.4854C117.349 13.7598 117.822 14.0343 118.046 14.1092C118.296 14.209 118.545 14.5084 118.645 14.7829C118.744 15.0823 119.268 15.9556 119.841 16.7042C120.389 17.4527 120.863 18.1763 120.863 18.3261C120.888 18.7003 121.984 21.0458 122.208 21.1955C122.308 21.2704 122.582 22.3184 122.807 23.5161C123.18 25.5122 123.18 25.7618 122.831 26.3107C122.358 27.0094 121.486 27.2589 118.994 27.3337C116.028 27.4086 113.436 27.6581 112.763 27.9076C112.414 28.0324 111.392 28.232 110.47 28.3069C109.548 28.4067 108.726 28.5813 108.651 28.7061C108.402 29.0804 106.134 28.9806 105.81 28.5813C105.311 27.9825 105.66 25.7119 106.508 23.9902C106.931 23.1168 107.23 22.3184 107.156 22.1936C107.081 22.0689 107.131 21.9191 107.28 21.8193C107.604 21.6197 109.274 19.0247 109.274 18.7253C109.274 18.6255 109.673 18.0765 110.196 17.5525C110.695 17.0286 111.293 16.28 111.517 15.9057C111.741 15.5314 112.638 14.6581 113.536 13.9844C115.255 12.6619 115.804 12.5621 117 13.4854Z" fill="black"/>
<path d="M316.109 0.458493C315.536 0.732965 315.037 1.05734 314.962 1.23201C314.913 1.38172 314.713 1.53143 314.514 1.55638C313.916 1.65619 312.321 2.70417 311.797 3.37788C311.548 3.70226 311.249 3.97673 311.149 3.97673C310.9 3.97673 308.533 6.02279 308.533 6.24736C308.533 6.37212 307.934 7.07078 307.237 7.81934C306.514 8.5679 305.741 9.36636 305.542 9.64084C303.972 11.5871 303.498 12.2608 303.449 12.6101C303.399 12.8347 303.224 13.1591 303 13.3088C302.501 13.6831 301.305 15.779 301.305 16.2781C301.305 16.5026 301.156 16.7771 300.956 16.8769C300.508 17.1514 299.262 19.6466 299.436 19.946C299.511 20.0708 299.436 20.2454 299.287 20.3203C298.938 20.5449 298.04 22.6159 297.941 23.5142C297.891 23.9134 297.741 24.3625 297.617 24.5122C297.293 24.9115 296.545 27.4566 296.695 27.6811C296.769 27.781 296.645 28.2051 296.421 28.6293C296.221 29.0535 295.997 30.0017 295.922 30.7253C295.847 31.4489 295.673 32.3222 295.548 32.6715C295.174 33.6696 295 36.9134 295 42.4028C295.025 48.5909 295.174 50.8616 295.648 51.7848C295.847 52.184 295.947 52.6332 295.897 52.8078C295.723 53.257 296.844 55.3779 297.417 55.6773C297.692 55.827 298.065 56.1015 298.24 56.2762C298.464 56.5007 299.984 56.5756 304.047 56.5756C308.582 56.6005 309.604 56.5257 309.903 56.2262C310.103 56.0017 310.277 55.7272 310.277 55.5775C310.277 55.2531 309.031 53.0573 308.732 52.8577C308.607 52.7829 308.483 52.5084 308.433 52.2339C308.308 51.6351 307.262 49.3145 307.062 49.1399C306.963 49.065 306.738 48.2167 306.564 47.2685C306.364 46.2953 306.14 45.3971 306.015 45.2474C305.891 45.0977 305.916 44.2742 306.09 43.376C306.24 42.5026 306.364 41.6044 306.389 41.3798C306.414 41.1552 306.987 40.3817 307.685 39.6831C308.358 38.9595 308.956 38.2608 308.981 38.136C309.031 38.0113 309.205 37.9115 309.405 37.9115C309.579 37.9115 310.252 37.6869 310.925 37.3875C311.598 37.113 312.371 36.7886 312.645 36.6639C313.417 36.3395 316.408 35.8904 318.576 35.7906C319.648 35.7157 320.62 35.6159 320.744 35.541C320.844 35.4911 321.866 35.6159 323.012 35.8405C324.657 36.1648 325.23 36.4144 325.779 36.9633C326.95 38.161 327.174 39.0094 326.9 41.4048C326.775 42.5775 326.576 43.7502 326.476 44.0247C325.978 45.2224 325.529 46.8692 325.654 46.994C325.754 47.0689 325.629 47.3433 325.43 47.5679C324.981 48.1168 323.984 50.4623 323.984 50.9863C323.984 51.1859 323.884 51.3856 323.76 51.4355C323.436 51.5602 322.24 54.0305 322.24 54.5794C322.24 54.8289 322.14 55.1284 321.99 55.2781C321.841 55.4278 321.866 55.7023 322.115 56.0765C322.489 56.6005 322.613 56.6005 328.321 56.5756C331.511 56.5756 334.277 56.4758 334.451 56.376C335.149 55.9268 336.246 53.5065 336.296 52.2589C336.32 51.7099 336.42 51.1111 336.545 50.9364C337.143 49.9633 337.193 32.447 336.595 31.4489C336.495 31.2992 336.37 30.4508 336.32 29.5276C336.246 28.6293 336.121 27.756 335.996 27.5813C335.872 27.4316 335.697 26.6581 335.623 25.8846C335.548 25.1111 335.299 24.0631 335.049 23.5641C334.825 23.09 334.701 22.6159 334.775 22.541C334.95 22.3664 334.028 19.6715 333.704 19.3472C333.554 19.1975 333.454 18.8731 333.454 18.5737C333.454 17.9748 332.532 15.9038 332.183 15.6792C332.034 15.6044 331.884 15.2301 331.859 14.8808C331.76 14.1322 330.539 11.9614 330.215 11.9614C330.065 11.9614 329.965 11.7867 329.965 11.5372C329.965 10.9633 328.52 8.76752 327.922 8.44314C327.673 8.31838 327.523 8.09381 327.598 7.96905C327.797 7.64467 323.461 3.20322 322.564 2.82893C322.115 2.62932 321.741 2.35485 321.741 2.23009C321.741 1.83085 319.473 0.483445 318.85 0.483445C318.526 0.483445 318.202 0.358685 318.128 0.233925C317.903 -0.140355 317.255 -0.065499 316.109 0.458493ZM319 12.4854C319.349 12.7598 319.822 13.0343 320.046 13.1092C320.296 13.209 320.545 13.5084 320.645 13.7829C320.744 14.0823 321.268 14.9556 321.841 15.7042C322.389 16.4527 322.863 17.1763 322.863 17.3261C322.888 17.7003 323.984 20.0458 324.208 20.1955C324.308 20.2704 324.582 21.3184 324.807 22.5161C325.18 24.5122 325.18 24.7618 324.831 25.3107C324.358 26.0094 323.486 26.2589 320.994 26.3337C318.028 26.4086 315.436 26.6581 314.763 26.9076C314.414 27.0324 313.392 27.232 312.47 27.3069C311.548 27.4067 310.726 27.5813 310.651 27.7061C310.402 28.0804 308.134 27.9806 307.81 27.5813C307.311 26.9825 307.66 24.7119 308.508 22.9902C308.931 22.1168 309.23 21.3184 309.156 21.1936C309.081 21.0689 309.131 20.9191 309.28 20.8193C309.604 20.6197 311.274 18.0247 311.274 17.7253C311.274 17.6255 311.673 17.0765 312.196 16.5525C312.695 16.0286 313.293 15.28 313.517 14.9057C313.741 14.5314 314.638 13.6581 315.536 12.9844C317.255 11.6619 317.804 11.5621 319 12.4854Z" fill="black"/>
<path d="M0.746689 1.23222C0.0790148 1.55513 -0.217729 2.39466 0.177929 2.91131C0.326301 3.10505 0.449945 3.6217 0.449945 4.07376C0.449945 4.52582 1.24126 8.30378 1.48855 8.30378C1.61219 8.30378 1.68638 8.56211 1.66165 8.85272C1.56274 9.65998 2.37878 12.6953 2.8239 13.1473C2.997 13.3734 3.1701 13.7931 3.1701 14.0837C3.1701 14.3743 3.39266 15.0847 3.66467 15.6337C4.23343 16.893 5.22258 17.0867 5.64296 16.0534C5.79134 15.6982 6.01389 15.4076 6.16227 15.4076C6.45901 15.4076 8.65986 13.5025 8.88242 13.0504C8.98134 12.889 9.35226 12.7275 9.74792 12.663C11.0585 12.4692 67.4433 12.0817 67.6906 11.8234C67.839 11.6943 68.7787 11.6943 69.7926 11.8557C70.8064 12.0172 71.7214 12.0495 71.8203 11.9849C71.9192 11.9203 72.2654 12.3078 72.6116 12.9213C73.2793 14.0514 73.5761 16.5701 73.0815 16.9576C72.9331 17.0867 72.4385 18.12 71.9934 19.2502C71.5483 20.3803 70.8806 21.7042 70.5344 22.1886C70.1882 22.6729 69.6937 23.6094 69.4216 24.2874C69.1496 24.9333 68.5809 25.9988 68.1605 26.5801C67.7401 27.1936 67.2455 28.0977 67.0477 28.582C66.8746 29.0664 66.3058 30.0674 65.836 30.7778C65.3661 31.5205 64.7974 32.5215 64.5995 33.0381C64.4017 33.5547 63.9319 34.3943 63.5609 34.9109C63.1653 35.4599 62.646 36.4932 62.3492 37.2358C62.0772 38.0108 61.7558 38.6566 61.6568 38.7212C61.3354 38.9149 59.9011 41.821 59.9011 42.3377C59.9011 42.596 59.7527 42.9512 59.5549 43.0804C59.0851 43.4356 57.6755 46.5031 57.6755 47.1812C57.6755 47.4718 57.5766 47.6979 57.4282 47.6979C57.1562 47.6979 55.9692 50.6363 55.7961 51.6696C55.7467 52.0248 55.5983 52.4122 55.4747 52.5414C55.1285 52.7997 53.9662 56.3194 54.1393 56.5454C54.2382 56.6423 54.1146 56.9975 53.9168 57.2881C53.4469 57.9984 52.6309 61.2275 52.8287 61.4858C52.9029 61.615 52.804 62.0347 52.5814 62.4868C52.161 63.294 51.889 66.1356 51.889 69.4615C51.889 70.9791 51.9879 71.4312 52.3836 71.7864C52.6309 72.0124 53.0265 72.3999 53.2244 72.6259C53.4964 72.9488 56.9831 73.0457 70.1635 72.9811C90.0948 72.9488 376.24 72.9811 376.834 72.5613C377.353 72.2061 377.501 70.9791 377.056 70.3979C376.933 70.2364 376.759 69.5583 376.735 68.9448C376.685 68.3313 376.389 67.1043 376.067 66.2325C375.77 65.3606 375.498 64.4888 375.498 64.3273C375.474 63.6492 374.559 60.7431 374.188 60.1942C373.965 59.9036 373.866 59.5484 373.94 59.4515C374.015 59.3223 373.767 58.3859 373.347 57.3526C372.729 55.7058 372.531 55.4475 371.913 55.4475C371.27 55.4475 368.92 57.4495 368.92 58.0307C368.92 58.1599 368.005 58.838 366.893 59.5484C364.148 61.3243 73.7244 61.7764 70.9548 61.0337C68.8529 60.4848 67.9626 59.7098 67.2208 57.7724C66.8251 56.7714 66.8251 56.61 67.3197 54.5111C67.5917 53.3164 67.8143 52.0893 67.8143 51.7987C67.8143 51.5404 67.9132 51.2498 68.0121 51.1852C68.3088 51.056 69.8668 47.375 69.6442 47.375C69.5453 47.375 69.7431 46.9875 70.0893 46.5031C70.4602 45.9865 71.029 44.9209 71.3505 44.0814C71.6967 43.2418 72.1418 42.3054 72.3643 42.0148C72.9578 41.2398 74.2932 38.6566 74.0954 38.6566C73.9964 38.6566 74.3179 38.14 74.7878 37.5264C75.2576 36.8806 75.8758 35.8474 76.1231 35.2015C76.3704 34.5557 76.9886 33.4579 77.4832 32.7798C77.9778 32.1017 78.5712 31.0361 78.7938 30.4226C79.0164 29.8091 79.2884 29.2924 79.3873 29.2924C79.684 29.2924 81.415 26.128 81.415 25.5791C81.415 25.3207 81.5634 25.0947 81.7365 25.0947C82.0333 25.0624 83.7643 21.9948 83.7643 21.4782C83.7643 21.3167 83.9126 21.0907 84.061 20.9616C84.5061 20.6064 86.1135 17.5711 86.1135 17.119C86.1135 16.893 86.2619 16.6024 86.435 16.4732C86.9048 16.0857 88.3391 13.0182 88.3391 12.4046C88.3391 12.0817 88.438 11.8557 88.5863 11.8557C88.8831 11.8557 90.0701 8.85272 90.0701 8.14233C90.0701 7.85172 90.2432 7.2705 90.4657 6.85072C90.6636 6.43095 90.8614 5.46224 90.8861 4.68727C90.9108 3.52482 90.7872 3.10505 90.1195 2.16863L89.3282 1.03848L72.8095 1.00619C63.734 0.973898 1.06816 1.07077 0.746689 1.23222Z" fill="black"/>
<path d="M49.87 68.865V41.24L47.995 46.74V68.865C47.995 68.865 47.9645 70.0205 47.495 70.49C47.0255 70.9595 45.87 70.99 45.87 70.99H11.12C11.12 70.99 10.0818 71.0768 9.495 70.49C8.90819 69.9032 8.995 68.865 8.995 68.865V46.74L7.12 41.24V68.865C7.12 70.7506 7.12 71.6934 7.70578 72.2792C8.29157 72.865 9.23439 72.865 11.12 72.865H45.87C47.7556 72.865 48.6984 72.865 49.2842 72.2792C49.87 71.6934 49.87 70.7506 49.87 68.865Z" fill="black"/>
</svg>
